<svg width="16" height="17" viewBox="0 0 16 17" fill="none" xmlns="http://www.w3.org/2000/svg">
<g clip-path="url(#clip0_19_192)">
<path fill-rule="evenodd" clip-rule="evenodd" d="M8 1.95455C4.38505 1.95455 1.45455 4.88505 1.45455 8.5C1.45455 12.115 4.38505 15.0455 8 15.0455C11.615 15.0455 14.5455 12.115 14.5455 8.5C14.5455 4.88505 11.615 1.95455 8 1.95455ZM0 8.5C0 4.08172 3.58172 0.5 8 0.5C12.4183 0.5 16 4.08172 16 8.5C16 12.9183 12.4183 16.5 8 16.5C3.58172 16.5 0 12.9183 0 8.5Z" fill="#0080FF"/>
<path fill-rule="evenodd" clip-rule="evenodd" d="M8.00071 3.40918C8.40237 3.40918 8.72798 3.73479 8.72798 4.13645V8.05061L11.235 9.30414C11.5943 9.48377 11.7399 9.92063 11.5603 10.2799C11.3807 10.6391 10.9438 10.7848 10.5845 10.6051L7.67546 9.15058C7.42908 9.02739 7.27344 8.77556 7.27344 8.50009V4.13645C7.27344 3.73479 7.59905 3.40918 8.00071 3.40918Z" fill="#0080FF"/>
</g>
<defs>
<clipPath id="clip0_19_192">
<rect width="16" height="16" fill="white" transform="translate(0 0.5)"/>
</clipPath>
</defs>
</svg>
