<svg width="33" height="32" viewBox="0 0 33 32" fill="none" xmlns="http://www.w3.org/2000/svg">
<g clip-path="url(#clip0_21_488)">
<path fill-rule="evenodd" clip-rule="evenodd" d="M0 16C0 7.16347 7.38733 0 16.5 0C25.6127 0 33 7.16347 33 16C33 24.8365 25.6127 32 16.5 32C7.38733 32 0 24.8365 0 16ZM18.2199 25.4077V16.7028H20.6978L21.0262 13.7031H18.2199L18.224 12.2017C18.224 11.4193 18.3007 11.0001 19.4596 11.0001H21.0087V8H18.5303C15.5534 8 14.5056 9.4552 14.5056 11.9024V13.7034H12.65V16.7031H14.5056V25.4077H18.2199Z" fill="white"/>
</g>
<defs>
<clipPath id="clip0_21_488">
<rect width="33" height="32" rx="16" fill="white"/>
</clipPath>
</defs>
</svg>
