<svg width="25" height="27" viewBox="0 0 25 27" fill="none" xmlns="http://www.w3.org/2000/svg">
<path d="M2.73824 11.3383H5.47863V21.1756H2.73995C1.24766 21.1756 0.0342219 19.9793 0.00244094 18.4915V14.1973C0.000878737 14.163 0 14.1227 0 14.0823C0 12.5668 1.22589 11.3383 2.73812 11.3383H2.73824ZM4.34247 12.4769H2.73824C1.85372 12.4772 1.13679 13.1958 1.13679 14.0823C1.13679 14.1087 1.13743 14.135 1.1387 14.1611L1.13855 14.1574V18.4703C1.16501 19.3382 1.87112 20.0323 2.74005 20.037H4.34247V12.4769ZM19.5214 11.3383H22.2595V12.4769H20.6575V20.1395H22.2595C23.1437 20.1382 23.8601 19.4202 23.8614 18.5342V14.1574C23.8625 14.135 23.8632 14.1087 23.8632 14.0823C23.8632 13.1958 23.1463 12.4772 22.2618 12.4769V11.3383H22.2619C23.7741 11.3383 25 12.5668 25 14.0823C25 14.1227 24.9991 14.163 24.9974 14.203L24.9976 14.1973V18.5341C24.9956 20.0488 23.7709 21.2762 22.2596 21.2781H19.5214L19.5214 11.3383ZM16.84 25.5705H12.5V24.4319H16.8401C18.9222 24.4293 20.6095 22.7385 20.612 20.6521V20.6519H21.7482C21.745 23.367 19.5495 25.5673 16.8404 25.5705H16.84ZM21.7482 11.9645H20.612V9.78984C20.612 5.3001 16.9802 1.66041 12.4999 1.66041C8.01972 1.66041 4.38785 5.30005 4.38785 9.78984V11.9645H3.25172V9.78984C3.25172 4.67126 7.39228 0.521851 12.4999 0.521851C17.6076 0.521851 21.7482 4.67126 21.7482 9.78984V11.9645Z" fill="black"/>
</svg>
