<svg width="25" height="27" viewBox="0 0 25 27" fill="none" xmlns="http://www.w3.org/2000/svg">
<path d="M2.73824 11.3382H5.47863V21.1755H2.73995C1.24766 21.1755 0.0342219 19.9792 0.00244094 18.4914V14.1972C0.000878737 14.1628 0 14.1226 0 14.0822C0 12.5667 1.22589 11.3382 2.73812 11.3382H2.73824ZM4.34247 12.4767H2.73824C1.85372 12.477 1.13679 13.1957 1.13679 14.0822C1.13679 14.1086 1.13743 14.1349 1.1387 14.161L1.13855 14.1573V18.4702C1.16501 19.3381 1.87112 20.0322 2.74005 20.0369H4.34247V12.4767ZM19.5214 11.3382H22.2595V12.4767H20.6575V20.1393H22.2595C23.1437 20.1381 23.8601 19.4201 23.8614 18.5341V14.1573C23.8625 14.1349 23.8632 14.1086 23.8632 14.0822C23.8632 13.1957 23.1463 12.477 22.2618 12.4767V11.3382H22.2619C23.7741 11.3382 25 12.5667 25 14.0822C25 14.1226 24.9991 14.1628 24.9974 14.2029L24.9976 14.1972V18.534C24.9956 20.0487 23.7709 21.276 22.2596 21.278H19.5214L19.5214 11.3382ZM16.84 25.5704H12.5V24.4318H16.8401C18.9222 24.4292 20.6095 22.7384 20.612 20.652V20.6518H21.7482C21.745 23.3669 19.5495 25.5671 16.8404 25.5704H16.84ZM21.7482 11.9644H20.612V9.78972C20.612 5.29997 16.9802 1.66029 12.4999 1.66029C8.01972 1.66029 4.38785 5.29993 4.38785 9.78972V11.9644H3.25172V9.78972C3.25172 4.67114 7.39228 0.521729 12.4999 0.521729C17.6076 0.521729 21.7482 4.67114 21.7482 9.78972V11.9644Z" fill="white"/>
</svg>
