<svg width="34" height="32" viewBox="0 0 34 32" fill="none" xmlns="http://www.w3.org/2000/svg">
<g clip-path="url(#clip0_21_484)">
<path fill-rule="evenodd" clip-rule="evenodd" d="M0 16C0 7.16347 7.61118 0 17 0C26.3888 0 34 7.16347 34 16C34 24.8365 26.3888 32 17 32C7.61118 32 0 24.8365 0 16ZM17.0008 7.46667C14.5385 7.46667 14.2294 7.4768 13.2623 7.5182C12.2971 7.5598 11.6383 7.70367 11.0618 7.91467C10.4654 8.1326 9.95959 8.4242 9.45561 8.89867C8.95128 9.373 8.64145 9.84907 8.40912 10.4101C8.18437 10.9529 8.03137 11.5732 7.98795 12.4813C7.94467 13.3915 7.93333 13.6825 7.93333 16.0001C7.93333 18.3176 7.94431 18.6076 7.98809 19.5178C8.0325 20.4263 8.18529 21.0463 8.40933 21.5889C8.6411 22.1502 8.95085 22.6263 9.45505 23.1006C9.95881 23.5753 10.4646 23.8675 11.0606 24.0855C11.6375 24.2965 12.2965 24.4403 13.2616 24.4819C14.2287 24.5234 14.5375 24.5335 16.9997 24.5335C19.4623 24.5335 19.7704 24.5234 20.7375 24.4819C21.7027 24.4403 22.3623 24.2965 22.9392 24.0855C23.5354 23.8675 24.0404 23.5753 24.5442 23.1006C25.0485 22.6263 25.3583 22.1502 25.5907 21.5891C25.8136 21.0463 25.9666 20.4261 26.0119 19.518C26.0553 18.6077 26.0667 18.3176 26.0667 16.0001C26.0667 13.6825 26.0553 13.3917 26.0119 12.4815C25.9666 11.573 25.8136 10.9529 25.5907 10.4103C25.3583 9.84907 25.0485 9.373 24.5442 8.89867C24.0398 8.424 23.5355 8.13247 22.9387 7.91467C22.3606 7.70367 21.7014 7.5598 20.7362 7.5182C19.769 7.4768 19.4612 7.46667 16.998 7.46667H17.0008Z" fill="white"/>
<path fill-rule="evenodd" clip-rule="evenodd" d="M16.1875 9.00457C16.4289 9.00424 16.6983 9.00457 17.0009 9.00457C19.4217 9.00457 19.7086 9.01277 20.6646 9.05364C21.5486 9.09171 22.0284 9.23071 22.348 9.34751C22.7711 9.50217 23.0728 9.68704 23.3899 9.98571C23.7072 10.2844 23.9037 10.5688 24.0684 10.9671C24.1925 11.2675 24.3404 11.7191 24.3806 12.5511C24.4241 13.4506 24.4336 13.7209 24.4336 15.9982C24.4336 18.2756 24.4241 18.5458 24.3806 19.4454C24.3402 20.2774 24.1925 20.729 24.0684 21.0294C23.9041 21.4276 23.7072 21.7112 23.3899 22.0097C23.0726 22.3084 22.7713 22.4932 22.348 22.6479C22.0288 22.7652 21.5486 22.9039 20.6646 22.942C19.7088 22.9828 19.4217 22.9917 17.0009 22.9917C14.5799 22.9917 14.2929 22.9828 13.3372 22.942C12.4532 22.9036 11.9733 22.7645 11.6536 22.6477C11.2304 22.493 10.9282 22.3082 10.6109 22.0095C10.2935 21.7108 10.0971 21.4271 9.93242 21.0287C9.80832 20.7282 9.66042 20.2767 9.62019 19.4447C9.5767 18.5451 9.56805 18.2749 9.56805 15.9961C9.56805 13.7173 9.5767 13.4485 9.62019 12.549C9.66056 11.717 9.80832 11.2654 9.93242 10.9646C10.0968 10.5664 10.2935 10.2819 10.6109 9.98324C10.9282 9.68457 11.2304 9.49971 11.6536 9.34464C11.9732 9.22731 12.4532 9.08864 13.3372 9.05044C14.1736 9.01491 14.4977 9.00424 16.1875 9.00244V9.00457ZM21.8406 10.4214C21.24 10.4214 20.7526 10.8796 20.7526 11.4451C20.7526 12.0104 21.24 12.4691 21.8406 12.4691C22.4413 12.4691 22.9286 12.0104 22.9286 11.4451C22.9286 10.8798 22.4413 10.4214 21.8406 10.4214ZM17.0009 11.6179C14.4295 11.6179 12.3447 13.5801 12.3447 16.0002C12.3447 18.4203 14.4295 20.3816 17.0009 20.3816C19.5723 20.3816 21.6563 18.4203 21.6563 16.0002C21.6563 13.5801 19.5723 11.6179 17.0009 11.6179Z" fill="white"/>
<path fill-rule="evenodd" clip-rule="evenodd" d="M17.0008 13.1558C18.6699 13.1558 20.0231 14.4292 20.0231 16.0002C20.0231 17.5711 18.6699 18.8447 17.0008 18.8447C15.3316 18.8447 13.9786 17.5711 13.9786 16.0002C13.9786 14.4292 15.3316 13.1558 17.0008 13.1558Z" fill="white"/>
</g>
<defs>
<clipPath id="clip0_21_484">
<rect width="34" height="32" rx="16" fill="white"/>
</clipPath>
</defs>
</svg>
