<svg width="74" height="72" viewBox="0 0 74 72" fill="none" xmlns="http://www.w3.org/2000/svg">
<g filter="url(#filter0_d_344_81)">
<g clip-path="url(#clip0_344_81)">
<path fill-rule="evenodd" clip-rule="evenodd" d="M20 36C20 27.1635 27.6112 20 37 20C46.3888 20 54 27.1635 54 36C54 44.8365 46.3888 52 37 52C27.6112 52 20 44.8365 20 36ZM37.0008 27.4667C34.5385 27.4667 34.2294 27.4768 33.2623 27.5182C32.2971 27.5598 31.6383 27.7037 31.0618 27.9147C30.4654 28.1326 29.9596 28.4242 29.4556 28.8987C28.9513 29.373 28.6415 29.8491 28.4091 30.4101C28.1844 30.9529 28.0314 31.5732 27.9879 32.4813C27.9447 33.3915 27.9333 33.6825 27.9333 36.0001C27.9333 38.3176 27.9443 38.6076 27.9881 39.5178C28.0325 40.4263 28.1853 41.0463 28.4093 41.5889C28.6411 42.1502 28.9509 42.6263 29.455 43.1006C29.9588 43.5753 30.4646 43.8675 31.0606 44.0855C31.6375 44.2965 32.2965 44.4403 33.2616 44.4819C34.2287 44.5234 34.5375 44.5335 36.9997 44.5335C39.4623 44.5335 39.7704 44.5234 40.7375 44.4819C41.7027 44.4403 42.3623 44.2965 42.9392 44.0855C43.5354 43.8675 44.0404 43.5753 44.5442 43.1006C45.0485 42.6263 45.3583 42.1502 45.5907 41.5891C45.8136 41.0463 45.9666 40.4261 46.0119 39.518C46.0553 38.6077 46.0667 38.3176 46.0667 36.0001C46.0667 33.6825 46.0553 33.3917 46.0119 32.4815C45.9666 31.573 45.8136 30.9529 45.5907 30.4103C45.3583 29.8491 45.0485 29.373 44.5442 28.8987C44.0398 28.424 43.5355 28.1325 42.9387 27.9147C42.3606 27.7037 41.7014 27.5598 40.7362 27.5182C39.769 27.4768 39.4612 27.4667 36.998 27.4667H37.0008Z" fill="white"/>
<path fill-rule="evenodd" clip-rule="evenodd" d="M36.1874 29.0046C36.4288 29.0042 36.6982 29.0046 37.0008 29.0046C39.4216 29.0046 39.7086 29.0128 40.6645 29.0536C41.5485 29.0917 42.0284 29.2307 42.348 29.3475C42.771 29.5022 43.0727 29.687 43.3898 29.9857C43.7072 30.2844 43.9037 30.5688 44.0684 30.9671C44.1925 31.2675 44.3404 31.7191 44.3806 32.5511C44.424 33.4506 44.4335 33.7209 44.4335 35.9982C44.4335 38.2756 44.424 38.5458 44.3806 39.4454C44.3401 40.2774 44.1925 40.729 44.0684 41.0294C43.904 41.4276 43.7072 41.7112 43.3898 42.0097C43.0725 42.3084 42.7713 42.4932 42.348 42.6479C42.0287 42.7652 41.5485 42.9039 40.6645 42.942C39.7088 42.9828 39.4216 42.9917 37.0008 42.9917C34.5798 42.9917 34.2929 42.9828 33.3371 42.942C32.4531 42.9036 31.9733 42.7645 31.6535 42.6477C31.2304 42.493 30.9281 42.3082 30.6108 42.0095C30.2935 41.7108 30.097 41.4271 29.9324 41.0287C29.8083 40.7282 29.6604 40.2767 29.6201 39.4447C29.5766 38.5451 29.568 38.2749 29.568 35.9961C29.568 33.7173 29.5766 33.4485 29.6201 32.549C29.6605 31.717 29.8083 31.2654 29.9324 30.9646C30.0967 30.5664 30.2935 30.2819 30.6108 29.9832C30.9281 29.6846 31.2304 29.4997 31.6535 29.3446C31.9731 29.2273 32.4531 29.0886 33.3371 29.0504C34.1735 29.0149 34.4976 29.0042 36.1874 29.0024V29.0046ZM41.8406 30.4214C41.2399 30.4214 40.7526 30.8796 40.7526 31.4451C40.7526 32.0104 41.2399 32.4691 41.8406 32.4691C42.4412 32.4691 42.9286 32.0104 42.9286 31.4451C42.9286 30.8798 42.4412 30.4214 41.8406 30.4214ZM37.0008 31.6179C34.4294 31.6179 32.3447 33.5801 32.3447 36.0002C32.3447 38.4203 34.4294 40.3816 37.0008 40.3816C39.5722 40.3816 41.6562 38.4203 41.6562 36.0002C41.6562 33.5801 39.5722 31.6179 37.0008 31.6179Z" fill="white"/>
<path fill-rule="evenodd" clip-rule="evenodd" d="M37.0009 33.1558C38.6699 33.1558 40.0231 34.4292 40.0231 36.0002C40.0231 37.5711 38.6699 38.8447 37.0009 38.8447C35.3316 38.8447 33.9786 37.5711 33.9786 36.0002C33.9786 34.4292 35.3316 33.1558 37.0009 33.1558Z" fill="white"/>
</g>
</g>
<defs>
<filter id="filter0_d_344_81" x="0" y="0" width="74" height="72" filterUnits="userSpaceOnUse" color-interpolation-filters="sRGB">
<feFlood flood-opacity="0" result="BackgroundImageFix"/>
<feColorMatrix in="SourceAlpha" type="matrix" values="0 0 0 0 0 0 0 0 0 0 0 0 0 0 0 0 0 0 127 0" result="hardAlpha"/>
<feOffset/>
<feGaussianBlur stdDeviation="10"/>
<feComposite in2="hardAlpha" operator="out"/>
<feColorMatrix type="matrix" values="0 0 0 0 0 0 0 0 0 0 0 0 0 0 0 0 0 0 0.25 0"/>
<feBlend mode="normal" in2="BackgroundImageFix" result="effect1_dropShadow_344_81"/>
<feBlend mode="normal" in="SourceGraphic" in2="effect1_dropShadow_344_81" result="shape"/>
</filter>
<clipPath id="clip0_344_81">
<rect x="20" y="20" width="34" height="32" rx="16" fill="white"/>
</clipPath>
</defs>
</svg>
