<svg width="25" height="25" viewBox="0 0 25 25" fill="none" xmlns="http://www.w3.org/2000/svg">
<path d="M12.5 24.999L11.7666 24.3792C9.4729 22.4385 1.98853 15.7042 1.98853 10.5115C1.98853 4.71562 6.70415 0 12.5 0C18.2958 0 23.0114 4.71562 23.0114 10.5115C23.0114 15.7042 15.5271 22.4385 13.2333 24.3792L12.5 24.999ZM12.5 1.04167C7.27811 1.04167 3.03019 5.28958 3.03019 10.5115C3.03019 15.3781 10.8677 22.2542 12.4385 23.5844L12.5 23.6365L12.5614 23.5844C14.1323 22.2552 21.9698 15.3781 21.9698 10.5115C21.9698 5.28958 17.7219 1.04167 12.5 1.04167Z" fill="black"/>
<path d="M12.5 14.5833C10.2021 14.5833 8.33331 12.7146 8.33331 10.4167C8.33331 8.11875 10.2021 6.25 12.5 6.25C14.7979 6.25 16.6666 8.11875 16.6666 10.4167C16.6666 12.7146 14.7979 14.5833 12.5 14.5833ZM12.5 7.29167C10.7771 7.29167 9.37498 8.69375 9.37498 10.4167C9.37498 12.1396 10.7771 13.5417 12.5 13.5417C14.2229 13.5417 15.625 12.1396 15.625 10.4167C15.625 8.69375 14.2229 7.29167 12.5 7.29167Z" fill="black"/>
</svg>
