<svg width="33" height="32" viewBox="0 0 33 32" fill="none" xmlns="http://www.w3.org/2000/svg">
<g clip-path="url(#clip0_21_490)">
<path fill-rule="evenodd" clip-rule="evenodd" d="M16.5 0C25.6126 0 33 7.1635 33 16C33 24.8365 25.6126 32 16.5 32C7.38736 32 0 24.8365 0 16C0 7.1635 7.38736 0 16.5 0ZM20.5373 9.84681H22.6901L17.9867 15.0597L23.52 22.1532H19.1874L15.7942 17.8509L11.9113 22.1532H9.75717L14.7878 16.5774L9.47996 9.84681H13.9223L16.9896 13.7791L20.5373 9.84681ZM19.7817 20.9036H20.9747L13.2741 11.0309H11.994L19.7817 20.9036Z" fill="white"/>
</g>
<defs>
<clipPath id="clip0_21_490">
<rect width="33" height="32" rx="16" fill="white"/>
</clipPath>
</defs>
</svg>
