<svg width="34" height="32" viewBox="0 0 34 32" fill="none" xmlns="http://www.w3.org/2000/svg">
<g clip-path="url(#clip0_21_492)">
<path fill-rule="evenodd" clip-rule="evenodd" d="M0 16C0 7.16347 7.61118 0 17 0C26.3888 0 34 7.16347 34 16C34 24.8365 26.3888 32 17 32C7.61118 32 0 24.8365 0 16ZM25.6877 12.0488C25.4792 11.2948 24.8647 10.7011 24.0845 10.4995C22.6705 10.1333 17 10.1333 17 10.1333C17 10.1333 11.3295 10.1333 9.91546 10.4995C9.13516 10.7011 8.52068 11.2948 8.31215 12.0488C7.93333 13.4153 7.93333 16.2667 7.93333 16.2667C7.93333 16.2667 7.93333 19.1179 8.31215 20.4845C8.52068 21.2385 9.13516 21.8323 9.91546 22.0339C11.3295 22.4 17 22.4 17 22.4C17 22.4 22.6705 22.4 24.0845 22.0339C24.8647 21.8323 25.4792 21.2385 25.6877 20.4845C26.0667 19.1179 26.0667 16.2667 26.0667 16.2667C26.0667 16.2667 26.0667 13.4153 25.6877 12.0488Z" fill="white"/>
<path fill-rule="evenodd" clip-rule="evenodd" d="M15.3001 19.2V13.8667L19.8334 16.5334L15.3001 19.2Z" fill="white"/>
</g>
<defs>
<clipPath id="clip0_21_492">
<rect width="34" height="32" rx="16" fill="white"/>
</clipPath>
</defs>
</svg>
