<svg width="56" height="62" viewBox="0 0 56 62" fill="none" xmlns="http://www.w3.org/2000/svg">
<path d="M15.0604 37.5986C14.8811 37.6326 14.7851 37.5375 14.759 37.4166C14.6881 37.09 14.5045 35.9716 14.4469 35.6423C14.4151 35.4613 14.4708 35.3622 14.6337 35.309C15.4312 35.051 16.7741 34.5969 17.8549 34.2163C18.1328 34.118 18.2196 34.0078 18.3758 33.7587C18.8281 33.0372 19.939 31.0766 20.4635 30.0604C20.5378 29.9161 20.5321 29.7439 20.4484 29.605L20.2094 29.2066C20.1276 29.0699 19.935 28.926 19.7806 28.8866C18.6821 28.6056 17.2282 28.2493 16.5417 28.0842C16.389 28.0475 16.2301 28.0537 16.0805 28.1015L15.9548 28.1418C17.0077 28.5003 17.904 28.8216 19.0401 29.254C19.1379 29.2912 19.2441 29.4045 19.2742 29.5045L19.3787 29.8475C19.4212 29.9869 19.4075 30.1365 19.3415 30.2662C18.8591 31.2116 18.0222 32.4645 17.3552 33.27C17.2547 33.3913 17.1259 33.4834 16.9785 33.5387C16.3332 33.7803 15.1591 34.1685 14.6474 34.2999C14.5456 34.3261 14.4952 34.3141 14.4106 34.2552C14.0389 33.995 13.2705 33.2745 13.2705 33.2745C13.2705 33.2745 13.2059 34.0578 13.2019 34.4088C13.2015 34.4478 13.209 34.4863 13.2241 34.5221C13.3551 34.8288 13.5865 35.4157 13.683 35.714C13.7082 35.7915 13.7282 35.8592 13.7481 35.9384C13.8773 36.4536 14.2336 37.9699 14.2336 37.9699C14.2854 38.1996 14.4151 38.2793 14.6178 38.2354C14.8789 38.1788 15.7141 37.9442 16.0562 37.8305C16.1088 37.8128 16.1558 37.7849 16.1965 37.7473C16.4173 37.545 16.7878 37.2033 16.7878 37.2033C16.7878 37.2033 15.5322 37.5087 15.0604 37.5986Z" fill="white"/>
<path d="M16.9532 32.9454C17.3799 32.4307 17.9442 31.6048 18.4164 30.8276L14.9226 33.7084C15.4953 33.5341 16.2721 33.2712 16.739 33.0963C16.8235 33.0649 16.8974 33.0127 16.9532 32.9454Z" fill="white"/>
<path d="M17.035 21.3388L16.4101 21.3924C16.36 21.3968 16.3207 21.4367 16.3167 21.4867L16.2582 22.228C16.2552 22.2665 16.2901 22.297 16.3282 22.2886L16.9598 22.1488C17.0354 22.132 17.127 22.062 17.158 21.9908C17.235 21.8137 17.2558 21.6079 17.1766 21.4234C17.1523 21.3681 17.0952 21.334 17.035 21.3388Z" fill="white"/>
<path d="M10.9487 30.6184L11.8963 31.7307L12.1751 29.8076C11.6263 29.8917 11.1222 30.2444 10.9487 30.6184Z" fill="white"/>
<path d="M41.8745 30.4168C41.4881 29.7299 39.5624 27.124 37.1525 24.6101C37.0649 24.5189 36.9596 24.4459 36.8436 24.395L36.4506 24.2241C36.4506 24.2241 37.1512 27.289 37.4654 28.9647C37.5053 29.178 37.6097 29.3736 37.7638 29.5263C38.8406 30.5934 39.5509 31.4242 40.1453 32.3022C40.4038 32.6838 40.5529 33.1277 40.5839 33.5875C40.7477 36.0218 40.6689 39.3668 40.3976 41.2306C40.3427 41.6086 40.2511 41.7418 40.0046 41.9414C37.673 43.8273 33.8163 47.1471 32.161 48.7847C31.9866 48.9573 31.9225 49.0348 31.8158 49.1959C31.5985 49.5247 31.3657 50.0107 31.3657 50.0107C31.3657 50.0107 30.9727 48.8059 30.8855 48.1487C30.8448 47.842 30.8412 47.7574 30.8859 47.4445C31.0855 46.0375 32.069 42.792 32.2296 42.3061C32.2433 42.264 32.2504 42.2202 32.2504 42.176V41.871C31.8941 42.615 30.064 46.7324 29.6768 48.1478C29.5953 48.4461 29.6086 48.5634 29.6865 48.7865C29.9237 49.4685 30.6155 51.1587 30.9333 51.8509C30.9333 51.8509 31.6852 50.4417 32.1212 49.7318C32.2433 49.5331 32.3925 49.3543 32.5633 49.1959C33.8645 47.9916 38.5454 44.084 40.7318 42.4402C41.0252 42.2198 41.1142 42.0635 41.1938 41.7586C42.0786 38.3808 42.4499 34.497 42.017 30.8315C41.9993 30.6806 41.9489 30.5492 41.8745 30.4168Z" fill="white"/>
<path d="M32.2884 20.5369C32.3778 20.3815 32.4114 20.201 32.3809 20.0248C32.3078 19.6004 32.1976 19.1007 32.1082 18.7232C32.0914 18.6523 32.0436 18.5935 31.9781 18.5621L31.3191 18.2465C31.2324 18.2049 31.135 18.1916 31.0403 18.208C29.4487 18.489 27.7744 18.8201 26.5086 19.1078C26.405 19.1312 26.317 19.1972 26.2634 19.2892L25.8695 19.9713C25.839 20.0239 25.8691 20.0908 25.9288 20.1023C26.2603 20.1647 26.9375 20.2859 27.1694 20.3205C27.3119 20.3417 27.3601 20.3377 27.4774 20.289C28.2794 19.9562 29.5912 19.4468 30.5663 19.0932C30.6437 19.0653 30.7269 19.0639 30.8053 19.0892L31.2532 19.2326C31.3182 19.2534 31.3731 19.2981 31.4067 19.3578C31.5293 19.5738 31.6572 19.8106 31.7338 19.9668C31.7882 20.0779 31.7577 20.2262 31.6648 20.3607C31.3341 20.8396 30.7672 21.5951 30.3782 22.0669C30.2923 22.1709 30.264 22.3099 30.3016 22.4396C30.53 23.2287 31.0265 24.8508 31.2912 25.6267C31.324 25.7218 31.3718 25.7944 31.4461 25.8626L31.8197 26.2025C31.8197 26.2025 31.2266 23.458 31.085 22.6728C31.0628 22.5502 31.0713 22.4254 31.1416 22.3227C31.455 21.8638 32.0162 21.0105 32.2884 20.5369Z" fill="white"/>
<path d="M46.5098 22.7932C46.4642 22.5857 46.3965 22.498 46.2238 22.3697C44.4429 21.0446 41.239 19.1631 39.3332 18.3629C39.0871 18.2598 38.8131 18.2536 38.5626 18.3452C37.654 18.678 36.2005 19.2897 34.6904 19.9987C34.6904 19.9987 35.3552 20.0483 35.673 20.085C35.835 20.1036 35.8978 20.1005 36.0554 20.0576C36.5183 19.9319 37.3411 19.7279 37.989 19.5809C38.3051 19.5092 38.6361 19.5796 38.8959 19.7734C39.7837 20.4347 41.2106 21.5841 42.1233 22.3511C42.2822 22.4843 42.4623 22.5918 42.6548 22.6689C44.0468 23.227 44.658 23.5054 44.97 23.6656C45.1886 23.778 45.3458 23.9794 45.4073 24.2175C45.7689 25.6138 46.011 27.7533 46.1367 29.2975C46.1601 29.5839 46.1221 29.8702 46.026 30.1411C45.6339 31.2493 44.6597 33.0905 44.1149 33.9708C44.0662 34.0496 44.0149 34.1107 43.9202 34.1921C43.7272 34.3585 43.3869 34.6329 43.1381 34.8254C43.0894 34.8631 43.0607 34.9202 43.0602 34.9812C43.0545 35.5801 42.9394 36.737 42.9394 36.737C44.2751 35.0618 45.5458 32.8904 46.6744 30.5832C46.7673 30.3934 46.8028 30.2867 46.8218 30.1088C47.0869 27.6343 46.928 24.6946 46.5098 22.7932Z" fill="white"/>
<path d="M28.7662 52.7548C28.452 52.0484 26.8162 48.178 26.3736 46.6966C26.2174 46.1726 26.1975 46.0305 26.2576 45.4401C26.6299 41.8003 27.9373 36.0086 28.1431 35.2146C28.1864 35.0468 28.1807 35.0012 28.1506 34.8304C28.0975 34.5285 27.9222 33.4902 27.9222 33.4902C27.3309 34.86 25.2251 40.519 24.4475 43.8495C24.301 44.4771 24.3266 44.6452 24.4585 44.9869C25.5769 47.8854 28.4263 53.1204 28.9504 53.9117L28.8331 52.9995C28.822 52.9146 28.8012 52.8322 28.7662 52.7548Z" fill="white"/>
<path d="M26.2285 52.9805C26.2285 52.9805 25.6076 52.5777 25.4168 52.4511C25.219 52.3197 25.1508 52.2626 25.057 52.1781C23.762 51.0048 19.2166 45.4193 17.8543 42.9912C17.626 42.5841 17.5591 42.392 17.5812 41.9817C17.6065 41.5139 17.6972 40.6101 17.7897 40.0799C17.8472 39.7502 17.9229 39.5315 18.2035 39.277C18.9758 38.5755 20.2239 37.3221 20.8759 36.6583C21.1609 36.3684 21.3043 36.1834 21.4561 35.8988C22.0536 34.7781 23.8815 30.8094 24.4936 29.1781C24.602 28.8895 24.6087 28.8081 24.5671 28.5071C24.4498 27.6525 23.7678 25.4448 23.7678 25.4448L23.7093 26.1835C23.7053 26.2344 23.7076 26.2853 23.716 26.3358C23.7704 26.6553 23.9775 27.9207 23.9709 28.5713C23.9687 28.7952 23.9576 28.8775 23.8368 29.1152C22.9193 30.9201 19.3379 35.7341 17.0745 38.3396C16.8196 38.6331 16.747 38.8278 16.6766 39.1598C16.5598 39.7103 16.427 40.966 16.3416 41.9644C16.2955 42.5009 16.3314 42.6841 16.6722 43.251C18.038 45.5206 22.6856 50.9574 24.2015 52.217C24.3015 52.3002 24.4086 52.3719 24.5228 52.4339C25.0561 52.7211 26.514 53.443 26.514 53.443L26.2887 53.0477C26.2741 53.0203 26.2533 52.9977 26.2285 52.9805Z" fill="white"/>
<path d="M19.4772 20.5949L22.3647 19.6916C22.5346 19.6398 22.678 19.5238 22.7639 19.3685L24.3032 16.7169C24.3399 16.6541 24.2939 16.5753 24.2209 16.5762L22.9051 16.5939C22.7913 16.5952 22.6461 16.6182 22.5382 16.6545C21.3941 17.0365 19.7614 17.7619 18.8425 18.2447C18.739 18.2992 18.642 18.3873 18.5686 18.478L17.1784 20.1895C17.1328 20.2457 17.074 20.2899 17.0076 20.3183L16.1069 20.7002C16.0635 20.7184 16.029 20.7524 16.0091 20.7949L15.967 20.8857C15.967 20.8857 17.8693 20.8259 18.5102 20.7772C18.8594 20.7507 19.1422 20.6967 19.4772 20.5949Z" fill="white"/>
<path d="M24.7675 14.3443C28.4033 14.0708 32.5818 14.1482 33.5949 14.1721C33.7463 14.1757 33.8959 14.2013 34.0393 14.2487L34.7815 14.4965C32.9567 14.5926 28.5481 14.9856 26.764 15.2923L27.3929 15.3906C27.4376 15.3976 27.4819 15.3998 27.527 15.3968C28.8468 15.3149 31.4306 15.2321 32.565 15.2157C32.8416 15.2118 32.9859 15.237 33.2678 15.3445C33.9282 15.5968 35.2537 16.1978 35.8008 16.4753C36.0871 16.621 36.2867 16.6692 36.5797 16.6811C37.1728 16.7055 38.0801 16.7683 38.7515 16.8396C38.9334 16.8591 39.11 16.9113 39.2738 16.9936C40.6537 17.688 42.2993 18.6737 43.4266 19.4314C43.4925 19.4756 43.5655 19.5062 43.6439 19.5217L44.2011 19.6314C44.2011 19.6314 42.4139 17.804 41.7093 17.1826C41.608 17.0928 41.4973 17.0144 41.3796 16.9471C38.717 15.4242 36.323 14.1823 34.974 13.6153C34.7576 13.5246 34.5292 13.4693 34.2955 13.4516C30.1768 13.1395 25.8646 13.2161 22.6784 13.4958C22.451 13.5157 22.2695 13.626 22.1615 13.7831C22.0376 13.9637 21.8335 14.2898 21.6481 14.5908C21.5574 14.7377 21.4463 14.8701 21.3166 14.9838C20.7421 15.4866 19.7768 16.2992 19.1656 16.7599C19.113 16.7998 19.0864 16.8197 19.0444 16.8484C18.7899 17.0233 17.9441 17.5805 17.7909 17.681C17.7325 17.719 17.7192 17.7296 17.6768 17.7845C17.6276 17.8478 17.374 18.1736 17.374 18.1736C19.9105 16.7475 23.1414 14.9586 24.2479 14.4722C24.4125 14.4009 24.5873 14.3576 24.7675 14.3443Z" fill="white"/>
<path d="M12.927 22.39C12.8956 22.432 12.8566 22.4678 12.8137 22.4984C10.5565 24.109 9.292 25.1349 8.79054 25.5562C8.58695 25.7558 8.39222 25.9501 8.2143 26.1347C8.05496 26.2998 8.01778 26.3617 8.00716 26.4923C7.99831 26.603 7.99079 26.7508 7.99123 26.8362C7.99123 26.884 8.00362 26.9216 8.03018 26.9615C8.06204 27.0092 8.24041 27.212 8.28245 27.254C8.30193 27.2735 8.33158 27.2801 8.35415 27.2642C8.68831 27.0296 9.15745 26.6809 9.58189 26.3569C9.61597 26.3308 9.67838 26.2675 9.70184 26.2272C9.77353 26.1037 9.86825 25.9254 9.9218 25.8125C9.95721 25.7377 9.98067 25.7138 10.067 25.6594C10.1524 25.6054 10.4095 25.4438 10.4095 25.4438C10.4095 25.4438 10.2175 26.2338 10.0798 26.5069C10.0324 26.6012 9.9873 26.6667 9.9519 26.7039C9.61951 27.0504 9.01626 27.724 8.71575 28.0936C8.61528 28.2171 8.64892 28.372 8.73035 28.4928C9.00741 28.904 9.58278 29.6121 9.93331 29.9821C10.0413 30.0959 10.0904 30.1432 10.1891 30.1994C10.3334 30.2818 10.4356 30.3149 10.4356 30.3149C10.4356 30.3149 10.7242 28.931 10.8468 28.5008C10.8884 28.3547 10.9796 28.2383 11.1624 28.1932C12.6428 27.8258 15.8392 27.2947 15.8392 27.2947C15.5028 26.8924 14.3791 25.7355 14.0392 25.4434C13.937 25.3553 13.8414 25.3115 13.7073 25.296C13.2943 25.2486 11.9404 25.1499 11.9404 25.1499C11.9404 25.1499 12.0577 25.0203 12.1449 24.9313C12.2255 24.849 12.2724 24.8176 12.3813 24.7799C14.041 24.205 16.2544 23.3681 17.5485 22.8281C17.8295 22.7108 17.9636 22.6281 18.188 22.3966C18.2854 22.2957 18.4828 22.0753 18.5952 21.9407C18.6182 21.9133 18.6306 21.8929 18.6368 21.858C18.6439 21.8177 18.6536 21.7447 18.6536 21.7447C18.6536 21.7447 18.1008 22.1594 17.8831 22.3112C17.6821 22.451 17.5529 22.5152 17.3161 22.5767C16.8598 22.6953 16.0043 22.8985 15.4949 23.0118C15.3559 23.0428 15.2891 23.0441 15.1634 22.9981C15.0819 22.9684 14.9257 22.9069 14.8337 22.8635C14.7332 22.8166 14.6876 22.81 14.5792 22.8343C14.1273 22.9361 12.8947 23.2397 12.8947 23.2397C12.8947 23.2397 13.4621 22.7338 13.5046 22.7011C13.5581 22.6599 13.5838 22.6458 13.6745 22.6095C14.1016 22.4386 14.6287 22.2483 15.074 22.0678C15.1758 22.0261 15.2191 21.977 15.2276 21.8766C15.2559 21.534 15.3528 20.9161 15.4117 20.5917C15.4285 20.4992 15.4577 20.4488 15.5316 20.3903C15.791 20.1845 16.7501 19.4498 16.978 19.2817C16.9926 19.2675 17.0068 19.2538 17.0214 19.2401L17.2794 18.9214C16.5974 19.3179 15.3789 20.0407 14.7509 20.4368C14.4805 20.6072 14.349 20.6979 14.083 20.9077C14.0534 20.9312 14.0277 20.9582 14.0042 20.9878C13.8374 21.1963 13.1642 22.0695 12.927 22.39Z" fill="white"/>
<path d="M11.9126 9.7971C11.9126 8.49988 11.9126 7.20265 11.9126 5.90498C13.5661 5.75848 15.2214 5.63456 16.8776 5.5332C16.8776 5.7452 16.8776 5.95765 16.8776 6.16965C15.4338 6.25772 13.9906 6.3635 12.5486 6.4861C12.5486 6.8083 12.5486 7.13051 12.5486 7.45271C13.825 7.34428 15.1019 7.24912 16.3796 7.16768C16.3796 7.37968 16.3796 7.59213 16.3796 7.80413C15.1019 7.88556 13.8246 7.98072 12.5486 8.08915C12.5486 8.42773 12.5486 8.76631 12.5486 9.10534C13.9906 8.98274 15.4338 8.8774 16.8776 8.78889C16.8776 9.00089 16.8776 9.21289 16.8776 9.42533C15.2214 9.52668 13.5666 9.65061 11.9126 9.7971Z" fill="white"/>
<path d="M5.1543 10.5229C5.1543 9.22566 5.1543 7.92843 5.1543 6.63076C6.46303 6.46524 7.77265 6.31431 9.08404 6.17755C9.31109 6.15365 9.49565 6.16162 9.64923 6.20057C9.8152 6.24306 9.94886 6.31564 10.0462 6.41567C10.1432 6.51525 10.2104 6.63917 10.2458 6.7839C10.2755 6.90517 10.2905 7.03795 10.2905 7.17869C10.2905 7.33005 10.2905 7.48186 10.2905 7.63323C10.2905 7.77441 10.2755 7.9094 10.2458 8.03466C10.2095 8.18558 10.1414 8.32145 10.044 8.4383C9.94576 8.55558 9.81121 8.65207 9.64524 8.72554C9.49343 8.79237 9.30976 8.83618 9.08448 8.85964C7.98509 8.97427 6.88659 9.09908 5.78897 9.23363C5.78897 9.63683 5.78897 10.0405 5.78897 10.4437C5.57653 10.4698 5.36541 10.4963 5.1543 10.5229ZM5.78808 8.59763C6.95298 8.45467 8.1192 8.32278 9.28586 8.2024C9.48591 8.18159 9.64878 8.00235 9.64834 7.80185C9.64834 7.57436 9.64834 7.34687 9.64834 7.11938C9.64834 6.91889 9.48547 6.77239 9.28586 6.79319C8.1192 6.91358 6.95298 7.04547 5.78808 7.18843C5.78808 7.65801 5.78808 8.1276 5.78808 8.59763Z" fill="white"/>
<path d="M40.3817 9.50786C40.1357 9.49104 39.9369 9.46227 39.7727 9.4189C39.586 9.36933 39.4315 9.29453 39.3147 9.19672C39.1854 9.08873 39.0951 8.95241 39.0469 8.79175C39.0075 8.6603 38.988 8.51204 38.988 8.33854C38.988 7.76052 38.988 7.1825 38.988 6.60448C38.988 6.43099 39.0071 6.28493 39.0469 6.15835C39.0951 6.00344 39.1854 5.87819 39.3147 5.78613C39.4311 5.70293 39.5855 5.6476 39.7723 5.62238C39.9361 5.60025 40.1352 5.59759 40.3813 5.61441C41.2435 5.67327 42.1052 5.73789 42.9665 5.80915C43.2125 5.82951 43.4117 5.86226 43.575 5.90873C43.7618 5.96228 43.9158 6.04062 44.0322 6.14153C44.1615 6.25306 44.2513 6.39204 44.2995 6.55402C44.3389 6.68636 44.358 6.83507 44.358 7.00856C44.358 7.58658 44.358 8.1646 44.358 8.74263C44.358 8.91612 44.3389 9.06173 44.2991 9.18698C44.2513 9.34056 44.1615 9.46316 44.0318 9.55212C43.9154 9.63267 43.7618 9.68401 43.5746 9.70526C43.4104 9.72384 43.2112 9.72252 42.966 9.7026C42.1056 9.63134 41.2439 9.56672 40.3817 9.50786ZM39.9949 6.22784C39.7944 6.21456 39.6316 6.36725 39.6316 6.56774C39.6316 7.19755 39.6316 7.82779 39.6316 8.4576C39.6316 8.65809 39.7949 8.83114 39.9949 8.84442C40.1016 8.8515 40.2087 8.85858 40.3154 8.86566C40.3384 8.86788 40.3623 8.86965 40.3884 8.87142C41.2461 8.92984 42.1034 8.99446 42.9607 9.06527C42.9771 9.06616 42.9935 9.06749 43.0098 9.06837C43.1245 9.07766 43.2391 9.0874 43.3537 9.09714C43.5542 9.11396 43.7171 8.96525 43.7167 8.76476C43.7167 8.13495 43.7167 7.5047 43.7167 6.8749C43.7167 6.67441 43.5538 6.49737 43.3537 6.48055C42.2344 6.38628 41.1151 6.30175 39.9949 6.22784Z" fill="white"/>
<path d="M47.923 10.1792C47.923 9.09402 47.923 8.00879 47.923 6.92357C47.1639 6.83992 46.4045 6.76114 45.6445 6.68722C45.6445 6.47522 45.6445 6.26278 45.6445 6.05078C47.3759 6.21941 49.1056 6.41282 50.833 6.63101C50.833 6.84301 50.833 7.05546 50.833 7.26746C50.0748 7.17186 49.3162 7.08069 48.5577 6.99438C48.5577 8.07961 48.5577 9.16483 48.5577 10.2501C48.3457 10.2262 48.1341 10.2027 47.923 10.1792Z" fill="white"/>
<path d="M32.3599 9.13871C32.3599 7.84148 32.3599 6.54425 32.3599 5.24658C34.0178 5.28642 35.6757 5.34882 37.3328 5.4338C37.3328 5.6458 37.3328 5.85824 37.3328 6.07024C35.8882 5.99633 34.4431 5.93923 32.9976 5.8994C32.9976 6.2216 32.9976 6.54381 32.9976 6.86601C34.2772 6.90098 35.5562 6.94966 36.8349 7.01207C36.8349 7.22407 36.8349 7.43651 36.8349 7.64851C35.5562 7.58655 34.2772 7.53786 32.9976 7.50246C32.9976 7.84104 32.9976 8.17962 32.9976 8.51864C34.4431 8.55847 35.8882 8.61512 37.3328 8.68948C37.3328 8.90148 37.3328 9.11348 37.3328 9.32592C35.6757 9.2405 34.0178 9.1781 32.3599 9.13871Z" fill="white"/>
<path d="M26.8517 9.08987C26.6057 9.0912 26.4056 9.07748 26.2414 9.0465C26.0546 9.01109 25.9002 8.9478 25.7829 8.8584C25.6532 8.7597 25.5629 8.63002 25.5147 8.4729C25.4753 8.34411 25.4558 8.19761 25.4558 8.02412C25.4558 7.45097 25.4558 6.87737 25.4558 6.30422C25.4558 5.93245 25.5527 5.6514 25.7439 5.47038C25.9347 5.28936 26.2476 5.20217 26.7287 5.19863C27.9569 5.19022 29.1851 5.19421 30.4132 5.21014C30.4132 5.42214 30.4132 5.63458 30.4132 5.84658C29.097 5.82932 27.7807 5.82578 26.4645 5.83685C26.2635 5.83862 26.1002 6.00326 26.1002 6.20375C26.1002 6.80788 26.0998 7.41202 26.0998 8.01615C26.0998 8.04271 26.1002 8.06926 26.1002 8.09538C26.1002 8.29543 26.2635 8.45697 26.4645 8.4552C26.5702 8.45432 26.676 8.45343 26.7822 8.45299C26.8061 8.45343 26.8314 8.45387 26.8584 8.45343C27.925 8.44679 28.9921 8.44945 30.0587 8.46139C30.0587 8.12281 30.0587 7.78424 30.0587 7.44521C29.3674 7.43725 28.6756 7.43326 27.9843 7.43371C27.9861 7.22171 27.9874 7.00926 27.9892 6.79726C28.8916 6.79726 29.7941 6.8039 30.6965 6.81718C30.6965 7.5802 30.6965 8.34323 30.6965 9.10581C29.4148 9.08722 28.1335 9.08146 26.8517 9.08987Z" fill="white"/>
<path d="M19.9346 9.25949C19.6885 9.27055 19.4889 9.26391 19.3247 9.23913C19.1375 9.2108 18.983 9.15327 18.8662 9.06829C18.7369 8.9749 18.6467 8.84877 18.5984 8.69342C18.559 8.56595 18.5396 8.4199 18.5396 8.24684C18.5396 7.3121 18.5396 6.37735 18.5396 5.44304C18.752 5.43198 18.9644 5.42136 19.1769 5.41118C19.1769 6.37248 19.1769 7.33423 19.1769 8.29553C19.1769 8.49602 19.3402 8.65093 19.5407 8.64163C20.6237 8.59118 21.7072 8.5509 22.7911 8.51992C22.992 8.51417 23.1549 8.34687 23.1549 8.14638C23.1549 7.18507 23.1549 6.22377 23.1549 5.26203C23.3673 5.25627 23.5798 5.25096 23.7926 5.24609C23.7926 6.18084 23.7926 7.11559 23.7926 8.04989C23.7926 8.22294 23.7736 8.37077 23.7338 8.50089C23.6855 8.65978 23.5952 8.79255 23.466 8.89612C23.3492 8.98995 23.1947 9.05899 23.007 9.10148C22.8428 9.13866 22.6432 9.1599 22.3972 9.16743C21.5762 9.19266 20.7552 9.22319 19.9346 9.25949Z" fill="white"/>
<path d="M55.8214 2.40148C46.3403 0.767448 36.9994 0 27.9998 0C19.0002 0 9.65897 0.767005 0.178278 2.40148C0.0366497 6.19845 -0.12401 12.0663 0.146412 17.0459C0.74966 28.1473 3.19673 36.7649 7.84701 44.165C12.4831 51.543 19.6624 57.8875 27.9998 61.6548C36.3373 57.8875 43.5161 51.543 48.1527 44.165C52.803 36.7649 55.25 28.1473 55.8533 17.0459C56.1241 12.0663 55.9635 6.19845 55.8214 2.40148ZM54.7858 16.9883C54.1927 27.9017 51.7974 36.3564 47.2476 43.5967C42.6982 50.8362 35.8766 56.816 28.0003 60.4793C20.124 56.816 13.3019 50.8362 8.75299 43.5967C4.20318 36.3569 1.80789 27.9017 1.21482 16.9883C1.02097 13.4233 1.02141 8.9425 1.21615 3.31056C10.1219 1.82346 19.129 1.06974 28.0007 1.06974C36.8724 1.06974 45.8791 1.82346 54.7849 3.31056C54.9792 8.94206 54.9796 13.4233 54.7858 16.9883Z" fill="white"/>
</svg>
