<svg width="217" height="19" viewBox="0 0 217 19" fill="none" xmlns="http://www.w3.org/2000/svg">
<path d="M102.851 18.4021C98.4313 18.4021 96.1817 17.6003 96.1817 13.3106V5.29226C96.1817 1.28307 98.1905 0 102.248 0H119.725V2.96706H101.043C100.199 2.96706 99.3555 3.68858 99.3555 4.53058V13.7517C99.3555 14.5937 100.199 15.4357 101.043 15.4357H117.796V10.464H108.074V7.49699H120.97V18.4021H102.851Z" fill="#020203"/>
<path d="M18.7621 0.000610352H0V18.4027H3.25434V12.7095H18.7621C22.4987 12.7095 24.5874 11.3462 24.5874 7.4976V5.41269C24.5874 1.64379 22.4987 0.000610352 18.7621 0.000610352ZM21.4135 8.25928C21.4135 9.06112 20.5697 9.74248 19.726 9.74248H3.25434V2.96702H19.7266C20.5704 2.96702 21.4142 3.68855 21.4142 4.53054V8.25928H21.4135Z" fill="#020203"/>
<path d="M55.2784 2.96702V0.000610352H31.8236V18.4021H55.2784V15.4357H34.9975V10.464H53.0366V7.4976H34.9975V2.96702H55.2784Z" fill="#020203"/>
<path d="M152.359 2.96702V0.000610352H128.904V18.4021H152.359V15.4357H132.078V10.464H150.117V7.4976H132.078V2.96702H152.359Z" fill="#020203"/>
<path d="M69.9087 18.4021C65.7703 18.4021 63.2397 17.4798 63.2397 13.3106V0.000610352H66.4136V13.8721C66.4136 14.7141 67.1366 15.4357 68.1011 15.4357H83.3681C84.3326 15.4357 84.9751 14.7141 84.9751 13.8721V0.000610352H88.2295V13.3112C88.2295 17.5206 86.0201 18.4027 81.5605 18.4027H69.9087V18.4021Z" fill="#020203"/>
<path d="M165.184 2.96702C164.219 2.96702 163.496 3.68854 163.496 4.65101V13.7517C163.496 14.5937 164.219 15.4357 165.184 15.4357H180.972C181.816 15.4357 182.66 14.5937 182.66 13.7517V4.65101C182.66 3.68854 181.816 2.96702 180.972 2.96702H165.184ZM166.992 18.4021C162.573 18.4021 160.323 17.6805 160.323 13.3106V5.09208C160.323 0.962426 162.372 0.000610352 166.992 0.000610352H179.165C183.183 0.000610352 185.834 0.88276 185.834 5.09208V13.3106C185.834 17.4403 183.544 18.4021 179.165 18.4021H166.992Z" fill="#020203"/>
<path d="M216.437 0.000610352H191.729V2.96702H202.496V18.4021H205.749V2.96702H216.437V0.000610352Z" fill="#020203"/>
</svg>
